<svg width="24" height="24" viewBox="0 0 24 24" fill="none" xmlns="http://www.w3.org/2000/svg">
  <path opacity="0.4" d="M4 19V5C4 3.89543 4.89543 3 6 3H18C19.1046 3 20 3.89543 20 5V19C20 20.1046 19.1046 21 18 21H6C4.89543 21 4 20.1046 4 19Z" fill="#0ea5e9"/>
  <path d="M4 19V5C4 3.89543 4.89543 3 6 3H18C19.1046 3 20 3.89543 20 5V19C20 20.1046 19.1046 21 18 21H6C4.89543 21 4 20.1046 4 19ZM4 17H20" stroke="#0ea5e9" stroke-width="2" stroke-linecap="round" stroke-linejoin="round"/>
  <path d="M8 7H16M8 11H16" stroke="#0ea5e9" stroke-width="2" stroke-linecap="round"/>
</svg>
