<svg width="24" height="24" viewBox="0 0 24 24" fill="none" xmlns="http://www.w3.org/2000/svg">
  <path opacity="0.4" d="M6 10V18C6 19.1046 6.89543 20 8 20H16C17.1046 20 18 19.1046 18 18V10" fill="#0ea5e9"/>
  <path d="M6 10V18C6 19.1046 6.89543 20 8 20H16C17.1046 20 18 19.1046 18 18V10M6 10H18M6 10C6 8.89543 6.89543 8 8 8H16C17.1046 8 18 8.89543 18 10M9 8V6C9 4.34315 10.3431 3 12 3C13.6569 3 15 4.34315 15 6V8" stroke="#0ea5e9" stroke-width="2" stroke-linecap="round" stroke-linejoin="round"/>
  <circle cx="12" cy="14" r="1" fill="#0ea5e9"/>
</svg>
